<?xml version="1.0" encoding="utf-8"?>
<!-- Generator: Adobe Illustrator 23.0.4, SVG Export Plug-In . SVG Version: 6.00 Build 0)  -->
<svg version="1.1" id="Layer_1" xmlns="http://www.w3.org/2000/svg" xmlns:xlink="http://www.w3.org/1999/xlink" x="0px" y="0px"
	 viewBox="0 0 30 20" style="enable-background:new 0 0 30 20;" xml:space="preserve">
<style type="text/css">
	.st0{fill:#002C5C;}
</style>
<g id="dashboard" transform="translate(-2 -2)">
	<path id="Path_2" class="st0" d="M15,21.5c5.3,0,10.4-4.3,11.6-9.5S24.3,2.5,19,2.5S8.6,6.7,7.5,12S9.7,21.5,15,21.5z M18.7,4.1
		c4.4,0,7.2,3.6,6.3,7.9s-5.2,7.9-9.6,7.9S8.1,16.4,9.1,12C10,7.6,14.3,4.1,18.7,4.1z"/>
	
		<ellipse id="Ellipse_1" transform="matrix(0.7435 -0.6687 0.6687 0.7435 -7.736 15.0891)" class="st0" cx="15.8" cy="17.6" rx="0.8" ry="0.6"/>
	
		<ellipse id="Ellipse_2" transform="matrix(0.7435 -0.6687 0.6687 0.7435 -2.2206 18.2101)" class="st0" cx="22.6" cy="12" rx="0.8" ry="0.6"/>
	
		<ellipse id="Ellipse_3" transform="matrix(0.7435 -0.6687 0.6687 0.7435 -5.1083 10.6808)" class="st0" cx="11.4" cy="12" rx="0.8" ry="0.6"/>
	
		<ellipse id="Ellipse_4" transform="matrix(0.7435 -0.6687 0.6687 0.7435 -7.6037 12.216)" class="st0" cx="12.1" cy="16" rx="0.8" ry="0.6"/>
	
		<ellipse id="Ellipse_5" transform="matrix(0.7435 -0.6687 0.6687 0.7435 -5.5412 17.5939)" class="st0" cx="20.2" cy="16" rx="0.8" ry="0.6"/>
	
		<ellipse id="Ellipse_6" transform="matrix(0.7435 -0.6687 0.6687 0.7435 0.2751 16.6744)" class="st0" cx="21.9" cy="8" rx="0.8" ry="0.6"/>
	
		<ellipse id="Ellipse_7" transform="matrix(0.7435 -0.6687 0.6687 0.7435 -1.7874 11.2966)" class="st0" cx="13.8" cy="8" rx="0.8" ry="0.6"/>
	<path id="Path_3" class="st0" d="M16.7,13.6c1.1,0,2.3-0.9,2.5-2.1c0.2-0.9-0.2-1.6-0.9-1.9l0.6-2.9C18.9,6.3,18.7,6,18.3,6
		s-0.8,0.3-0.8,0.7l-0.6,2.9c-1.2,0.4-2,1.6-1.8,2.7C15.2,13,15.8,13.6,16.7,13.6L16.7,13.6z M17.3,10.8c0.4,0,0.6,0.3,0.5,0.7
		c-0.1,0.4-0.5,0.7-0.8,0.7c-0.4,0-0.6-0.3-0.5-0.7C16.5,11.1,16.9,10.8,17.3,10.8C17.2,10.8,17.3,10.8,17.3,10.8L17.3,10.8z"/>
</g>
</svg>
