<svg xmlns="http://www.w3.org/2000/svg" width="321.12" height="207.4" viewBox="0 0 321.12 207.4">
  <g id="Ivusible" transform="translate(776 -4294)">
    <path id="Subtraction_19" data-name="Subtraction 19" d="M152.392,193.033H10a10.011,10.011,0,0,1-10-10V10A10.011,10.011,0,0,1,10,0H294.79a10.011,10.011,0,0,1,10,10V80.4L287.518,93.16V23.287a5.006,5.006,0,0,0-5-5H23.288a5.006,5.006,0,0,0-5,5V169.745a5.006,5.006,0,0,0,5,5H177.135l-24.742,18.287Z" transform="translate(-776 4294)" fill="#002c5c"/>
    <path id="Path_115" data-name="Path 115" d="M135.749,35.979a7.092,7.092,0,0,0-9.837,0L76.586,83.368,60.653,68.044a7.157,7.157,0,0,0-9.837,0L34.127,84.083a6.835,6.835,0,0,0,0,9.9l37.552,36.09a7.166,7.166,0,0,0,9.833,0l70.909-68.147a6.839,6.839,0,0,0,0-9.9Zm-59.176,87.5L40.745,89.051,55.71,74.671l20.86,20.047,54.245-52.125,14.965,14.38Z" transform="translate(-609.423 4369.375)" fill="#002c5c"/>
    <rect id="Rectangle_120" data-name="Rectangle 120" width="70" height="12" rx="6" transform="translate(-736 4390.791)" fill="#002c5c"/>
    <rect id="Rectangle_121" data-name="Rectangle 121" width="100" height="12" rx="6" transform="translate(-736 4425.791)" fill="#002c5c"/>
    <path id="Path_116" data-name="Path 116" d="M80.768,52.853A12.256,12.256,0,0,0,93.024,40.6V24.256A12.256,12.256,0,0,0,80.768,12H56.256A12.256,12.256,0,0,0,44,24.256V40.6A12.256,12.256,0,0,0,56.256,52.853ZM52.171,40.6V24.256a4.085,4.085,0,0,1,4.085-4.085H80.768a4.085,4.085,0,0,1,4.085,4.085V40.6a4.085,4.085,0,0,1-4.085,4.085H56.256A4.085,4.085,0,0,1,52.171,40.6Z" transform="translate(-609.417 4322.512)" fill="#002c5c"/>
  </g>
</svg>
