<svg xmlns="http://www.w3.org/2000/svg" width="307" height="289.213" viewBox="0 0 307 289.213">
  <g id="Letters_of_credit" data-name="Letters of credit" transform="translate(405 -3077.787)">
    <path id="Subtraction_12" data-name="Subtraction 12" d="M294,273.283H13a13,13,0,0,1-13-13v-179a13,13,0,0,1,13-13H178.8a58.341,58.341,0,0,0,10.861,7.056l1.643,6.944H23a6.007,6.007,0,0,0-6,6v166a6.007,6.007,0,0,0,6,6H284a6.006,6.006,0,0,0,6-6v-166a6.006,6.006,0,0,0-6-6h-41.93c12.663-2.241,23.763-7.082,32.1-14H294a13,13,0,0,1,13,13v179a13,13,0,0,1-13,13Z" transform="translate(-405 3093.717)" fill="#002c5c"/>
    <rect id="Rectangle_109" data-name="Rectangle 109" width="241" height="12" rx="6" transform="translate(-372 3205.519)" fill="#002c5c"/>
    <rect id="Rectangle_110" data-name="Rectangle 110" width="241" height="12" rx="6" transform="translate(-372 3235.519)" fill="#002c5c"/>
    <rect id="Rectangle_111" data-name="Rectangle 111" width="76" height="6" rx="3" transform="translate(-372 3291.519)" fill="#002c5c"/>
    <rect id="Rectangle_112" data-name="Rectangle 112" width="105" height="6" rx="3" transform="translate(-372 3319.519)" fill="#002c5c"/>
    <path id="Subtraction_10" data-name="Subtraction 10" d="M46.834,47.977a23.885,23.885,0,0,1-11.423-2.889,23.993,23.993,0,1,1-20.76-43.2,23.987,23.987,0,0,1,20.76,1,23.993,23.993,0,1,1,20.76,43.2A23.838,23.838,0,0,1,46.834,47.977ZM35.455,40.667h0a19.762,19.762,0,1,0,0-32.673,19.762,19.762,0,1,0,0,32.673Z" transform="translate(-214.023 3285.49)" fill="#002c5c"/>
    <path id="Subtraction_11" data-name="Subtraction 11" d="M36.222,106.813a7.407,7.407,0,0,1-4.718-1.753,9.007,9.007,0,0,1-2.939-4.92l-5.1-21.562A51.333,51.333,0,0,1,6.375,63.523,33.907,33.907,0,0,1,0,43.964,33.386,33.386,0,0,1,4.81,26.851,46.3,46.3,0,0,1,17.928,12.877,66.2,66.2,0,0,1,37.385,3.455a83.888,83.888,0,0,1,47.653,0A66.2,66.2,0,0,1,104.5,12.877a46.3,46.3,0,0,1,13.118,13.975,32.847,32.847,0,0,1,0,34.227A46.3,46.3,0,0,1,104.5,75.053a66.2,66.2,0,0,1-19.457,9.422A81.9,81.9,0,0,1,61.212,87.93c-1.679,0-3.372-.049-5.032-.146L41.766,104.179A7.363,7.363,0,0,1,36.222,106.813ZM61.214,9.752c-13.473,0-26.14,3.563-35.667,10.032S10.772,34.853,10.772,44c0,10.911,7.392,20.918,20.281,27.455L34.614,86.5a5.459,5.459,0,0,0,5.173,4.509,4.976,4.976,0,0,0,3.747-1.781l10-11.375a74.992,74.992,0,0,0,7.677.393c13.474,0,26.14-3.562,35.667-10.031S111.655,53.15,111.655,44s-5.247-17.749-14.774-24.218S74.687,9.752,61.214,9.752Z" transform="translate(-240.146 3088.457) rotate(-5)" fill="#002c5c"/>
  </g>
</svg>
