<?xml version="1.0" encoding="utf-8"?>
<!-- Generator: Adobe Illustrator 23.0.4, SVG Export Plug-In . SVG Version: 6.00 Build 0)  -->
<svg version="1.1" id="Layer_1" xmlns="http://www.w3.org/2000/svg" xmlns:xlink="http://www.w3.org/1999/xlink" x="0px" y="0px"
	 viewBox="0 0 30 20" style="enable-background:new 0 0 30 20;" xml:space="preserve">
<style type="text/css">
	.st0{fill:#002C5C;stroke:#002C5C;stroke-width:0.351;}
</style>
<g id="Transaction-history" transform="translate(-17.034 -20.132)">
	<g id="Group_23" transform="translate(17.284 20.382)">
		<path id="Path_13" class="st0" d="M7,15.6c-0.9,0-1.5-0.7-1.3-1.6l1.9-8.8h15.7l-0.4,2c0.5,0.2,0.9,0.4,1.3,0.7l1-4.6
			c0.4-1.7-0.7-3-2.4-3H10.2c-1.7,0-3.3,1.4-3.7,3L4.3,14c-0.4,1.7,0.7,3,2.4,3H13c-0.2-0.4-0.3-0.9-0.4-1.4H7z M8,3.3
			c0.2-0.9,1.1-1.6,2-1.6c0,0,0,0,0,0h12.4c0.9,0,1.5,0.7,1.3,1.6l-0.1,0.5H7.9L8,3.3z"/>
		<polygon id="Rectangle_7" class="st0" points="9.4,7.3 10.9,7.3 10.6,8.8 9.1,8.8 		"/>
		<path id="Path_14" class="st0" d="M18.2,7.3h-5.8L12,8.8h3.6C16.4,8.1,17.3,7.7,18.2,7.3z"/>
		<polygon id="Rectangle_8" class="st0" points="8.8,10.1 10.3,10.1 10,11.6 8.5,11.6 		"/>
		<path id="Path_15" class="st0" d="M11.4,11.6h2c0.3-0.5,0.6-1,0.9-1.5h-2.6L11.4,11.6z"/>
		<path id="Path_16" class="st0" d="M20.6,7.6c-3.2,0-6.3,2.6-7,5.8s1.4,5.8,4.6,5.8s6.3-2.6,7-5.8l0,0C25.8,10.2,23.8,7.6,20.6,7.6
			z M18.4,17.8c-2.4,0-4-2-3.5-4.4C15.5,11,17.9,9,20.3,9c2.4,0,4,2,3.5,4.4C23.2,15.9,20.8,17.8,18.4,17.8z"/>
		<path id="Path_17" class="st0" d="M20.7,10.6h-1.5l-0.8,3.6h1.5l0,0h2.2l0.3-1.5h-2.2L20.7,10.6z"/>
	</g>
</g>
</svg>
