<svg xmlns="http://www.w3.org/2000/svg" width="361" height="252.001" viewBox="0 0 361 252.001">
  <g id="bills" transform="translate(832 -3982)">
    <g id="noun_nairas_1260087" transform="translate(-799.027 4014.063)">
      <g id="Path_95" data-name="Path 95" transform="translate(-10 -9)" fill="#002c5c" stroke-linejoin="bevel">
        <path d="M 62.47384643554688 69.11299896240234 L 56.90415191650391 69.11299896240234 L 44.71951675415039 49.21968841552734 L 44.42693710327148 48.74200057983398 L 43.86676788330078 48.74200057983398 L 22.73186683654785 48.74200057983398 L 21.73186683654785 48.74200057983398 L 21.73186683654785 49.74200057983398 L 21.73186683654785 67.56662750244141 C 21.73186683654785 68.54936981201172 21.16823577880859 69.11299896240234 20.18549728393555 69.11299896240234 C 19.2027473449707 69.11299896240234 18.63911628723145 68.54936981201172 18.63911628723145 67.56662750244141 L 18.63911628723145 49.74200057983398 L 18.63911628723145 48.74200057983398 L 17.63911628723145 48.74200057983398 L 12.54637622833252 48.74200057983398 C 11.56362628936768 48.74200057983398 10.99999618530273 48.17836761474609 10.99999618530273 47.19562911987305 C 10.99999618530273 46.212890625 11.56362628936768 45.64925765991211 12.54637622833252 45.64925765991211 L 17.63911628723145 45.64925765991211 L 18.63911628723145 45.64925765991211 L 18.63911628723145 44.64925765991211 L 18.63911628723145 34.46374893188477 L 18.63911628723145 33.46374893188477 L 17.63911628723145 33.46374893188477 L 12.54637622833252 33.46374893188477 C 11.56362628936768 33.46374893188477 10.99999618530273 32.90011978149414 10.99999618530273 31.91737937927246 C 10.99999618530273 30.93462944030762 11.56362628936768 30.37100028991699 12.54637622833252 30.37100028991699 L 17.63911628723145 30.37100028991699 L 18.63911628723145 30.37100028991699 L 18.63911628723145 29.37100028991699 L 18.63911628723145 9.999999046325684 L 24.20880126953125 9.999999046325684 L 36.39344787597656 29.89330863952637 L 36.68602752685547 30.37100028991699 L 37.24619674682617 30.37100028991699 L 58.38109588623047 30.37100028991699 L 59.38109588623047 30.37100028991699 L 59.38109588623047 29.37100028991699 L 59.38109588623047 11.54637908935547 C 59.38109588623047 10.56362915039063 59.94472503662109 9.999999046325684 60.92747497558594 9.999999046325684 C 61.91021728515625 9.999999046325684 62.47384643554688 10.56362915039063 62.47384643554688 11.54637908935547 L 62.47384643554688 29.37100028991699 L 62.47384643554688 30.37100028991699 L 63.47384643554688 30.37100028991699 L 68.56658935546875 30.37100028991699 C 69.54932403564453 30.37100028991699 70.11295318603516 30.93462944030762 70.11295318603516 31.91737937927246 C 70.11295318603516 32.90011978149414 69.54932403564453 33.46374893188477 68.56658935546875 33.46374893188477 L 63.47384643554688 33.46374893188477 L 62.47384643554688 33.46374893188477 L 62.47384643554688 34.46374893188477 L 62.47384643554688 44.64925765991211 L 62.47384643554688 45.64925765991211 L 63.47384643554688 45.64925765991211 L 68.56658935546875 45.64925765991211 C 69.54932403564453 45.64925765991211 70.11295318603516 46.212890625 70.11295318603516 47.19562911987305 C 70.11295318603516 48.17836761474609 69.54932403564453 48.74200057983398 68.56658935546875 48.74200057983398 L 63.47384643554688 48.74200057983398 L 62.47384643554688 48.74200057983398 L 62.47384643554688 49.74200057983398 L 62.47384643554688 69.11299896240234 Z M 47.92959594726563 48.74200057983398 L 48.87283706665039 50.26781845092773 L 57.5305061340332 64.27288818359375 L 59.38109588623047 67.26650238037109 L 59.38109588623047 63.7470703125 L 59.38109588623047 49.74200057983398 L 59.38109588623047 48.74200057983398 L 58.38109588623047 48.74200057983398 L 49.72342681884766 48.74200057983398 L 47.92959594726563 48.74200057983398 Z M 38.49759674072266 33.46374893188477 L 39.4538459777832 34.99374771118164 L 45.81977844238281 45.17926025390625 L 46.113525390625 45.64925765991211 L 46.66777801513672 45.64925765991211 L 58.38109588623047 45.64925765991211 L 59.38109588623047 45.64925765991211 L 59.38109588623047 44.64925765991211 L 59.38109588623047 34.46374893188477 L 59.38109588623047 33.46374893188477 L 58.38109588623047 33.46374893188477 L 40.30184555053711 33.46374893188477 L 38.49759674072266 33.46374893188477 Z M 21.73186683654785 33.46374893188477 L 21.73186683654785 34.46374893188477 L 21.73186683654785 44.64925765991211 L 21.73186683654785 45.64925765991211 L 22.73186683654785 45.64925765991211 L 40.81111526489258 45.64925765991211 L 42.6153678894043 45.64925765991211 L 41.65911483764648 44.11925888061523 L 35.29318618774414 33.93375015258789 L 34.99943542480469 33.46374893188477 L 34.44518661499023 33.46374893188477 L 22.73186683654785 33.46374893188477 L 21.73186683654785 33.46374893188477 Z M 21.73186683654785 11.84650993347168 L 21.73186683654785 15.36593914031982 L 21.73186683654785 29.37100028991699 L 21.73186683654785 30.37100028991699 L 22.73186683654785 30.37100028991699 L 31.38953590393066 30.37100028991699 L 33.18336486816406 30.37100028991699 L 32.24012756347656 28.84517860412598 L 23.58245658874512 14.84011936187744 L 21.73186683654785 11.84650993347168 Z" stroke="none"/>
        <path d="M 19.63911819458008 11 L 19.63911819458008 29.37099838256836 L 17.63911819458008 31.37099838256836 L 12.54636383056641 31.37099838256836 C 12.12765502929688 31.37099838256836 12 31.49866104125977 12 31.91738128662109 C 12 32.33609008789063 12.12765502929688 32.46374893188477 12.54636383056641 32.46374893188477 L 17.63911819458008 32.46374893188477 L 19.63911819458008 34.46374893188477 L 19.63911819458008 44.64925765991211 L 17.63911819458008 46.64925765991211 L 12.54636383056641 46.64925765991211 C 12.12765502929688 46.64925765991211 12 46.77692031860352 12 47.19562911987305 C 12 47.61434173583984 12.12765502929688 47.74199676513672 12.54636383056641 47.74199676513672 L 17.63911819458008 47.74199676513672 L 19.63911819458008 49.74199676513672 L 19.63911819458008 67.56662750244141 C 19.63911819458008 67.98533630371094 19.76677703857422 68.11299896240234 20.18549728393555 68.11299896240234 C 20.60420608520508 68.11299896240234 20.73186492919922 67.98533630371094 20.73186492919922 67.56662750244141 L 20.73186492919922 49.74199676513672 L 22.73186492919922 47.74199676513672 L 43.86676788330078 47.74199676513672 L 45.5722770690918 48.69738006591797 L 57.46432495117188 68.11299896240234 L 61.47383880615234 68.11299896240234 L 61.47383880615234 49.74199676513672 L 63.47383880615234 47.74199676513672 L 68.56658935546875 47.74199676513672 C 68.98529815673828 47.74199676513672 69.11296081542969 47.61434173583984 69.11296081542969 47.19562911987305 C 69.11296081542969 46.77692031860352 68.98529815673828 46.64925765991211 68.56658935546875 46.64925765991211 L 63.47383880615234 46.64925765991211 L 61.47383880615234 44.64925765991211 L 61.47383880615234 34.46374893188477 L 63.47383880615234 32.46374893188477 L 68.56658935546875 32.46374893188477 C 68.98529815673828 32.46374893188477 69.11296081542969 32.33609008789063 69.11296081542969 31.91738128662109 C 69.11296081542969 31.49866104125977 68.98529815673828 31.37099838256836 68.56658935546875 31.37099838256836 L 63.47383880615234 31.37099838256836 L 61.47383880615234 29.37099838256836 L 61.47383880615234 11.54637908935547 C 61.47383880615234 11.12766265869141 61.34617614746094 11 60.92746734619141 11 C 60.50874710083008 11 60.38108825683594 11.12766265869141 60.38108825683594 11.54637908935547 L 60.38108825683594 29.37099838256836 L 58.38108825683594 31.37099838256836 L 37.24619674682617 31.37099838256836 L 35.54068756103516 30.41561889648438 L 23.64862823486328 11 L 19.63911819458008 11 M 31.3895378112793 31.37099838256836 L 22.73186492919922 31.37099838256836 L 20.73186492919922 29.37099838256836 L 20.73186492919922 15.36594009399414 L 24.43305587768555 14.31430053710938 L 33.09072494506836 28.31935882568359 L 31.3895378112793 31.37099838256836 M 40.81111526489258 46.64925765991211 L 22.73186492919922 46.64925765991211 L 20.73186492919922 44.64925765991211 L 20.73186492919922 34.46374893188477 L 22.73186492919922 32.46374893188477 L 34.44518661499023 32.46374893188477 L 36.14118576049805 33.40375137329102 L 42.50711822509766 43.58926010131836 L 40.81111526489258 46.64925765991211 M 58.38108825683594 46.64925765991211 L 46.66777801513672 46.64925765991211 L 44.97177505493164 45.70925903320313 L 38.6058464050293 35.52375030517578 L 40.30184555053711 32.46374893188477 L 58.38108825683594 32.46374893188477 L 60.38108825683594 34.46374893188477 L 60.38108825683594 44.64925765991211 L 58.38108825683594 46.64925765991211 M 56.67989730834961 64.7987060546875 L 48.02223587036133 50.79364013671875 L 49.72342681884766 47.74199676513672 L 58.38108825683594 47.74199676513672 L 60.38108825683594 49.74199676513672 L 60.38108825683594 63.7470703125 L 56.67989730834961 64.7987060546875 M 17.63911819458008 9 L 24.76896667480469 9 L 37.24619674682617 29.37099838256836 L 58.38108825683594 29.37099838256836 L 58.38108825683594 11.54637908935547 C 58.38108825683594 10.01854705810547 59.39963531494141 9 60.92746734619141 9 C 62.45527648925781 9 63.47383880615234 10.01854705810547 63.47383880615234 11.54637908935547 L 63.47383880615234 29.37099838256836 L 68.56658935546875 29.37099838256836 C 70.09440612792969 29.37099838256836 71.11296081542969 30.38954925537109 71.11296081542969 31.91738128662109 C 71.11296081542969 33.44520950317383 70.09440612792969 34.46374893188477 68.56658935546875 34.46374893188477 L 63.47383880615234 34.46374893188477 L 63.47383880615234 44.64925765991211 L 68.56658935546875 44.64925765991211 C 70.09440612792969 44.64925765991211 71.11296081542969 45.66780090332031 71.11296081542969 47.19562911987305 C 71.11296081542969 48.72345733642578 70.09440612792969 49.74199676513672 68.56658935546875 49.74199676513672 L 63.47383880615234 49.74199676513672 L 63.47383880615234 70.11299896240234 L 56.34398651123047 70.11299896240234 L 43.86676788330078 49.74199676513672 L 22.73186492919922 49.74199676513672 L 22.73186492919922 67.56662750244141 C 22.73186492919922 69.09445190429688 21.71331787109375 70.11299896240234 20.18549728393555 70.11299896240234 C 18.65766525268555 70.11299896240234 17.63911819458008 69.09445190429688 17.63911819458008 67.56662750244141 L 17.63911819458008 49.74199676513672 L 12.54636383056641 49.74199676513672 C 11.01854705810547 49.74199676513672 10 48.72345733642578 10 47.19562911987305 C 10 45.66780090332031 11.01854705810547 44.64925765991211 12.54636383056641 44.64925765991211 L 17.63911819458008 44.64925765991211 L 17.63911819458008 34.46374893188477 L 12.54636383056641 34.46374893188477 C 11.01854705810547 34.46374893188477 10 33.44520950317383 10 31.91738128662109 C 10 30.38954925537109 11.01854705810547 29.37099838256836 12.54636383056641 29.37099838256836 L 17.63911819458008 29.37099838256836 L 17.63911819458008 9 Z M 31.3895378112793 29.37099838256836 L 22.73186492919922 15.36594009399414 L 22.73186492919922 29.37099838256836 L 31.3895378112793 29.37099838256836 Z M 40.81111526489258 44.64925765991211 L 34.44518661499023 34.46374893188477 L 22.73186492919922 34.46374893188477 L 22.73186492919922 44.64925765991211 L 40.81111526489258 44.64925765991211 Z M 40.30184555053711 34.46374893188477 L 46.66777801513672 44.64925765991211 L 58.38108825683594 44.64925765991211 L 58.38108825683594 34.46374893188477 L 40.30184555053711 34.46374893188477 Z M 49.72342681884766 49.74199676513672 L 58.38108825683594 63.7470703125 L 58.38108825683594 49.74199676513672 L 49.72342681884766 49.74199676513672 Z" stroke="none" fill="#002c5c"/>
      </g>
    </g>
    <path id="Subtraction_17" data-name="Subtraction 17" d="M311.672,92.791H126.336a65.685,65.685,0,0,0,4-12H311.672a6,6,0,1,1,0,12Z" transform="translate(-831 3988)" fill="#002c5c"/>
    <rect id="Rectangle_116" data-name="Rectangle 116" width="222.672" height="12" rx="6" transform="translate(-736 4146.791)" fill="#002c5c"/>
    <path id="Subtraction_18" data-name="Subtraction 18" d="M311.672,131.791H101a6.006,6.006,0,0,1-6-6c0-.166.007-.333.02-.5a66.155,66.155,0,0,0,9.231-5.5h207.42a6,6,0,1,1,0,12Z" transform="translate(-831 3988)" fill="#002c5c"/>
    <rect id="Rectangle_117" data-name="Rectangle 117" width="222.672" height="12" rx="6" transform="translate(-736 4185.791)" fill="#002c5c"/>
    <path id="Subtraction_16" data-name="Subtraction 16" d="M340,246H53a10.011,10.011,0,0,1-10-10V127.882a65.7,65.7,0,0,0,17,3.849V228a5.005,5.005,0,0,0,5,5H328a5.005,5.005,0,0,0,5-5V60a5.005,5.005,0,0,0-5-5H131.088A65.639,65.639,0,0,0,127.1,41H340a10.011,10.011,0,0,1,10,10V236A10.011,10.011,0,0,1,340,246Z" transform="translate(-821 3988)" fill="#002c5c"/>
    <path id="Subtraction_15" data-name="Subtraction 15" d="M63.1,126.6A63.516,63.516,0,0,1,38.383,4.591,63.516,63.516,0,0,1,87.817,121.609,63.1,63.1,0,0,1,63.1,126.6ZM62.954,14.165a48.789,48.789,0,1,0,48.789,48.789A48.845,48.845,0,0,0,62.954,14.165Z" transform="translate(-831.6 3982.399)" fill="#002c5c"/>
  </g>
</svg>
