<?xml version="1.0" encoding="utf-8"?>
<!-- Generator: Adobe Illustrator 23.0.4, SVG Export Plug-In . SVG Version: 6.00 Build 0)  -->
<svg version="1.1" id="Layer_1" xmlns="http://www.w3.org/2000/svg" xmlns:xlink="http://www.w3.org/1999/xlink" x="0px" y="0px"
	 viewBox="0 0 30 20" style="enable-background:new 0 0 30 20;" xml:space="preserve">
<style type="text/css">
	.st0{fill:#002C5C;}
</style>
<g id="forms" transform="translate(-2.5 -4.1)">
	<g id="Group_30" transform="translate(2.5 4.1)">
		<g id="Group_29">
			<path id="Path_49" class="st0" d="M19.5,18.2H5.1L8.8,3.2H11l-0.2,0.6c-0.1,0.4,0.2,0.7,0.7,0.7c0.5,0,0.9-0.3,1-0.7l0.2-0.6h2.4
				L15,3.8c-0.1,0.4,0.2,0.7,0.7,0.7c0.5,0,0.9-0.3,1-0.7l0.2-0.6h2.4l-0.2,0.6c-0.1,0.4,0.2,0.7,0.7,0.7s0.9-0.3,1-0.7L21,3.2h2.2
				l-1.7,7.1l2.1-1.5l1.5-6c0.2-0.6-0.3-1.1-1-1.1c0,0,0,0,0,0h-2.6L21.5,1c0.1-0.4-0.2-0.7-0.7-0.7s-0.9,0.3-1,0.7l-0.2,0.6h-2.4
				L17.3,1c0.1-0.4-0.2-0.7-0.7-0.7s-0.9,0.3-1,0.7l-0.2,0.6H13L13.2,1c0.1-0.4-0.2-0.7-0.7-0.7c-0.5,0-0.9,0.3-1,0.7l-0.2,0.6H8.7
				C8,1.7,7.3,2.2,7.2,2.8c0,0,0,0,0,0L3.3,18.6c-0.2,0.6,0.3,1.1,1,1.1c0,0,0,0,0,0h15.2c0.7,0,1.4-0.5,1.6-1.1l0.8-3.2l-2.1,1.5
				L19.5,18.2L19.5,18.2z"/>
			<path id="Path_50" class="st0" d="M18.7,11.2c0.1-0.4-0.2-0.7-0.7-0.7h-7.7c-0.5,0-0.9,0.3-1,0.7C9.2,11.6,9.5,12,10,12h7.7
				C18.2,12,18.6,11.6,18.7,11.2z"/>
			<path id="Path_51" class="st0" d="M10.9,8.3h7.7c0.5,0,0.9-0.3,1-0.7c0.1-0.4-0.2-0.7-0.7-0.7l0,0h-7.7c-0.5,0-0.9,0.3-1,0.7
				C10.1,7.9,10.4,8.3,10.9,8.3C10.9,8.3,10.9,8.3,10.9,8.3z"/>
			<path id="Path_52" class="st0" d="M8.4,14.9c-0.1,0.4,0.2,0.7,0.6,0.7c0,0,0,0,0,0h6.3l0.7-1.3c0-0.1,0.1-0.1,0.1-0.2H9.4
				C9,14.2,8.5,14.5,8.4,14.9C8.4,14.9,8.4,14.9,8.4,14.9z"/>
			<path id="Path_53" class="st0" d="M16.8,16.7l1.9-0.4c0.1,0,0.2-0.1,0.2-0.1l0.7-0.5l-1.6-1.8l-0.7,0.5c-0.1,0.1-0.1,0.1-0.2,0.2
				l-0.8,1.7c-0.1,0.2,0,0.4,0.2,0.4C16.7,16.7,16.7,16.7,16.8,16.7z"/>
			<path id="Path_54" class="st0" d="M18.9,13.3l1.6,1.8l5.9-4.2l-1.6-1.8L18.9,13.3z"/>
			<path id="Path_55" class="st0" d="M28.5,8.9l-1.1-1.3c-0.1-0.1-0.4-0.1-0.6,0l-1.2,0.8l1.6,1.8l1.2-0.8
				C28.6,9.3,28.7,9.1,28.5,8.9C28.6,8.9,28.6,8.9,28.5,8.9z"/>
		</g>
	</g>
</g>
</svg>
