<svg id="Paar" xmlns="http://www.w3.org/2000/svg" width="312.732" height="432.98" viewBox="0 0 312.732 432.98">
  <path id="Subtraction_4" data-name="Subtraction 4" d="M177.935,393.186H23.3A23.25,23.25,0,0,1,0,370.038V68.916A23.25,23.25,0,0,1,23.3,45.768H72.32V36.834a12.654,12.654,0,0,1,12.64-12.64h19.9A27.04,27.04,0,0,1,131.8,0h.188a27.036,27.036,0,0,1,26.937,24.195h19.9a12.654,12.654,0,0,1,12.64,12.64v8.934h49.022a23.25,23.25,0,0,1,23.3,23.148V299.44a70.505,70.505,0,0,0-14.937-2.746V68.916a8.3,8.3,0,0,0-8.361-8.218H191.463V68.8a12.654,12.654,0,0,1-12.64,12.64H84.96A12.654,12.654,0,0,1,72.32,68.8V60.7H23.3a8.3,8.3,0,0,0-8.369,8.218V370.038a8.3,8.3,0,0,0,8.369,8.21H173.832a70.214,70.214,0,0,0,4.1,14.926ZM87.25,39.132V66.513h89.284V39.132H87.25ZM131.8,14.93a12.141,12.141,0,0,0-11.819,9.265H143.8a12.154,12.154,0,0,0-11.819-9.265Zm52.9,313.159H58.4a7.465,7.465,0,1,1,0-14.93H198a70.916,70.916,0,0,0-13.3,14.926Zm23.666-92.139H58.4a7.465,7.465,0,1,1,0-14.93H208.366a7.465,7.465,0,0,1,0,14.93Zm0-88.771H58.4a7.465,7.465,0,1,1,0-14.93H208.366a7.465,7.465,0,0,1,0,14.93Z" transform="translate(0 0)" fill="#002c5c"/>
  <g id="noun_Time_1797581" transform="translate(187.075 307.323)">
    <g id="Group_39" data-name="Group 39" transform="translate(0 0)">
      <g id="Path_89" data-name="Path 89" transform="translate(-9 -961.362)" fill="#002c5c">
        <path d="M 71.82833099365234 1085.01904296875 C 38.2874755859375 1085.01904296875 11.00000381469727 1057.731201171875 11.00000381469727 1024.18994140625 C 11.00000381469727 990.6492309570313 38.2874755859375 963.3618774414063 71.82833099365234 963.3618774414063 C 105.3691864013672 963.3618774414063 132.6566619873047 990.6492309570313 132.6566619873047 1024.18994140625 C 132.6566619873047 1057.731201171875 105.3691864013672 1085.01904296875 71.82833099365234 1085.01904296875 Z M 71.82833099365234 968.5565795898438 C 41.15167617797852 968.5565795898438 16.19440460205078 993.5136108398438 16.19440460205078 1024.18994140625 C 16.19440460205078 1054.867065429688 41.15167617797852 1079.82470703125 71.82833099365234 1079.82470703125 C 102.5049819946289 1079.82470703125 127.462272644043 1054.867065429688 127.462272644043 1024.18994140625 C 127.462272644043 993.5136108398438 102.5049819946289 968.5565795898438 71.82833099365234 968.5565795898438 Z M 71.82833099365234 1026.787841796875 L 33.51836776733398 1026.787841796875 C 32.08627700805664 1026.787841796875 30.92118644714355 1025.622436523438 30.92118644714355 1024.18994140625 C 30.92118644714355 1022.757934570313 32.08627700805664 1021.592956542969 33.51836776733398 1021.592956542969 L 67.23113250732422 1021.592956542969 L 69.23113250732422 1021.592956542969 L 69.23113250732422 1019.592956542969 L 69.23113250732422 982.8163452148438 C 69.23113250732422 981.3837890625 70.39622497558594 980.2183227539063 71.82833099365234 980.2183227539063 C 73.26043701171875 980.2183227539063 74.42552947998047 981.3837890625 74.42552947998047 982.8163452148438 L 74.42552947998047 1024.18994140625 C 74.42552947998047 1025.622436523438 73.26043701171875 1026.787841796875 71.82833099365234 1026.787841796875 Z" stroke="none"/>
        <path d="M 71.82833099365234 965.36181640625 C 39.39027404785156 965.36181640625 12.99998474121094 991.751953125 12.99998474121094 1024.18994140625 C 12.99998474121094 1056.62841796875 39.39027404785156 1083.01904296875 71.82833099365234 1083.01904296875 C 104.2663726806641 1083.01904296875 130.6566467285156 1056.62841796875 130.6566467285156 1024.18994140625 C 130.6566467285156 991.751953125 104.2663726806641 965.36181640625 71.82833099365234 965.36181640625 M 71.82833099365234 1081.82470703125 C 40.04887390136719 1081.82470703125 14.19439697265625 1055.969848632813 14.19439697265625 1024.18994140625 C 14.19439697265625 992.410888671875 40.04887390136719 966.556640625 71.82833099365234 966.556640625 C 103.6077880859375 966.556640625 129.4622650146484 992.410888671875 129.4622650146484 1024.18994140625 C 129.4622650146484 1055.969848632813 103.6077880859375 1081.82470703125 71.82833099365234 1081.82470703125 M 71.82833099365234 982.21826171875 C 71.49903106689453 982.21826171875 71.23113250732422 982.486572265625 71.23113250732422 982.81640625 L 71.23113250732422 1019.593017578125 L 71.23113250732422 1023.593017578125 L 67.23113250732422 1023.593017578125 L 33.51837158203125 1023.593017578125 C 33.18907165527344 1023.593017578125 32.92117309570313 1023.86083984375 32.92117309570313 1024.18994140625 C 32.92117309570313 1024.519653320313 33.18907165527344 1024.787841796875 33.51837158203125 1024.787841796875 L 71.82833099365234 1024.787841796875 C 72.15763092041016 1024.787841796875 72.42552947998047 1024.519653320313 72.42552947998047 1024.18994140625 L 72.42552947998047 982.81640625 C 72.42552947998047 982.486572265625 72.15763092041016 982.21826171875 71.82833099365234 982.21826171875 M 71.82833099365234 961.36181640625 C 106.4729461669922 961.36181640625 134.6566467285156 989.5458984375 134.6566467285156 1024.18994140625 C 134.6566467285156 1058.835693359375 106.4729461669922 1087.01904296875 71.82833099365234 1087.01904296875 C 37.18370819091797 1087.01904296875 8.999984741210938 1058.835693359375 8.999984741210938 1024.18994140625 C 8.999984741210938 989.54638671875 37.18370819091797 961.36181640625 71.82833099365234 961.36181640625 Z M 71.82833099365234 1077.82470703125 C 101.5038757324219 1077.82470703125 125.462272644043 1053.8662109375 125.462272644043 1024.18994140625 C 125.462272644043 994.51513671875 101.5038757324219 970.556640625 71.82833099365234 970.556640625 C 42.15283203125 970.556640625 18.19438934326172 994.51513671875 18.19438934326172 1024.18994140625 C 18.19438934326172 1053.8662109375 42.15283203125 1077.82470703125 71.82833099365234 1077.82470703125 Z M 71.82833099365234 978.21826171875 C 74.36721038818359 978.21826171875 76.42552947998047 980.27685546875 76.42552947998047 982.81640625 L 76.42552947998047 1024.18994140625 C 76.42552947998047 1026.7294921875 74.36721038818359 1028.787841796875 71.82833099365234 1028.787841796875 L 33.51837158203125 1028.787841796875 C 30.97950744628906 1028.787841796875 28.92117309570313 1026.7294921875 28.92117309570313 1024.18994140625 C 28.92117309570313 1021.65185546875 30.97950744628906 1019.593017578125 33.51837158203125 1019.593017578125 L 67.23113250732422 1019.593017578125 L 67.23113250732422 982.81640625 C 67.23113250732422 980.27685546875 69.28929138183594 978.21826171875 71.82833099365234 978.21826171875 Z" stroke="none" fill="#002c5c"/>
      </g>
    </g>
  </g>
</svg>
