<svg xmlns="http://www.w3.org/2000/svg" width="30" height="28.958" viewBox="0 0 30 28.958">
  <g id="forms" transform="translate(-2.5 -4.1)">
    <g id="Group_30" data-name="Group 30" transform="translate(2.5 4.1)">
      <g id="Group_29" data-name="Group 29">
        <path id="Path_49" data-name="Path 49" d="M23.405,30.847H4.711V8.363H7.584v.947a1.105,1.105,0,0,0,2.211,0V8.363h3.189v.947a1.105,1.105,0,0,0,2.211,0V8.363h3.189v.947a1.105,1.105,0,0,0,2.211,0V8.363h2.874V18.942l2.211-2.211V7.826a1.664,1.664,0,0,0-1.674-1.674H20.563V5.205a1.105,1.105,0,1,0-2.211,0v.947H15.163V5.205a1.105,1.105,0,0,0-2.211,0v.947H9.763V5.205a1.105,1.105,0,0,0-2.211,0v.947H4.174A1.664,1.664,0,0,0,2.5,7.826V31.384a1.664,1.664,0,0,0,1.674,1.674h19.8a1.685,1.685,0,0,0,1.674-1.674V26.679l-2.211,2.211v1.958Z" transform="translate(-2.5 -4.1)" fill="#002c5c"/>
        <path id="Path_50" data-name="Path 50" d="M31.984,53.305A1.119,1.119,0,0,0,30.879,52.2H20.805a1.105,1.105,0,0,0,0,2.211H30.879A1.119,1.119,0,0,0,31.984,53.305Z" transform="translate(-14.268 -37.011)" fill="#002c5c"/>
        <path id="Path_51" data-name="Path 51" d="M20.805,36.911H30.879a1.105,1.105,0,1,0,0-2.211H20.805A1.119,1.119,0,0,0,19.7,35.805,1.1,1.1,0,0,0,20.805,36.911Z" transform="translate(-14.268 -25.037)" fill="#002c5c"/>
        <path id="Path_52" data-name="Path 52" d="M19.7,70.805a1.079,1.079,0,0,0,1.105,1.105h8.274l.442-1.958c.032-.095.032-.189.063-.253H20.805A1.1,1.1,0,0,0,19.7,70.805Z" transform="translate(-14.268 -48.984)" fill="#002c5c"/>
        <path id="Path_53" data-name="Path 53" d="M54.663,72.537,57.094,72a1.28,1.28,0,0,0,.284-.158l.726-.758L55.421,68.4l-.726.726a.513.513,0,0,0-.158.284l-.568,2.463A.564.564,0,0,0,54.663,72.537Z" transform="translate(-37.705 -48.095)" fill="#002c5c"/>
        <path id="Path_54" data-name="Path 54" d="M61.6,51.816,64.253,54.5l6.316-6.316L67.916,45.5Z" transform="translate(-42.937 -32.426)" fill="#002c5c"/>
        <path id="Path_55" data-name="Path 55" d="M88.347,40.136l-1.863-1.895a.591.591,0,0,0-.821,0L84.4,39.5l2.684,2.684,1.263-1.263A.506.506,0,0,0,88.347,40.136Z" transform="translate(-58.537 -27.346)" fill="#002c5c"/>
      </g>
    </g>
  </g>
</svg>
