<svg id="Guarantee" xmlns="http://www.w3.org/2000/svg" width="315.271" height="411.222" viewBox="0 0 315.271 411.222">
  <g id="noun_guarantee_1524772" transform="translate(0 0)">
    <g id="Layer_3" data-name="Layer 3">
      <g id="Path_79" data-name="Path 79" transform="translate(-9 -2)" fill="#002c5c" stroke-linecap="round" stroke-linejoin="bevel">
        <path d="M 317.4169616699219 412.7222290039063 L 15.85373592376709 412.7222290039063 C 12.35026264190674 412.7222290039063 9.499999046325684 409.8720092773438 9.499999046325684 406.3685913085938 L 9.499999046325684 8.85374641418457 C 9.499999046325684 5.350272178649902 12.35026264190674 2.500009298324585 15.85373592376709 2.500009298324585 L 317.4169616699219 2.500009298324585 C 320.9203796386719 2.500009298324585 323.7706298828125 5.350272178649902 323.7706298828125 8.853693008422852 L 323.7706298828125 406.3685913085938 C 323.7706298828125 409.8720092773438 320.9203796386719 412.7222290039063 317.4169616699219 412.7222290039063 Z M 22.20742034912109 15.20742988586426 L 22.20742034912109 15.70742988586426 L 22.20742034912109 399.5148010253906 L 22.20742034912109 400.0148010253906 L 22.70742034912109 400.0148010253906 L 310.5632629394531 400.0148010253906 L 311.0632629394531 400.0148010253906 L 311.0632629394531 399.5148010253906 L 311.0632629394531 15.70742988586426 L 311.0632629394531 15.20742988586426 L 310.5632629394531 15.20742988586426 L 22.70742034912109 15.20742988586426 L 22.20742034912109 15.20742988586426 Z" stroke="none"/>
        <path d="M 317.4169616699219 412.2222290039063 C 320.6446838378906 412.2222290039063 323.2706298828125 409.5962829589844 323.2706298828125 406.3685913085938 L 323.2706298828125 8.853693008422852 C 323.2706298828125 5.625956535339355 320.6446838378906 3.000009298324585 317.4169616699219 3.000009298324585 L 15.85373592376709 3.000009298324585 C 12.62599945068359 3.000009298324585 9.999999046325684 5.626009464263916 9.999999046325684 8.85374641418457 L 9.999999046325684 406.3685913085938 C 9.999999046325684 409.5962829589844 12.62599945068359 412.2222290039063 15.85373592376709 412.2222290039063 L 317.4169616699219 412.2222290039063 M 22.70742034912109 14.70742988586426 L 310.5632629394531 14.70742988586426 L 311.5632629394531 15.70742988586426 L 311.5632629394531 399.5148010253906 L 310.5632629394531 400.5148010253906 L 22.70742034912109 400.5148010253906 L 21.70742034912109 399.5148010253906 L 21.70742034912109 15.70742988586426 L 22.70742034912109 14.70742988586426 M 317.4169616699219 413.2222290039063 L 15.85373592376709 413.2222290039063 C 12.06852531433105 413.2222290039063 8.999999046325684 410.1537475585938 8.999999046325684 406.3685913085938 L 8.999999046325684 8.85374641418457 C 8.999999046325684 5.068535327911377 12.06852531433105 2.000009298324585 15.85373592376709 2.000009298324585 L 317.4169616699219 2.000009298324585 C 321.2021484375 2.000009298324585 324.2706298828125 5.068535327911377 324.2706298828125 8.853693008422852 L 324.2706298828125 406.3685913085938 C 324.2706298828125 410.1537475585938 321.2021484375 413.2222290039063 317.4169616699219 413.2222290039063 Z M 22.70742034912109 15.70742988586426 L 22.70742034912109 399.5148010253906 L 310.5632629394531 399.5148010253906 L 310.5632629394531 15.70742988586426 L 22.70742034912109 15.70742988586426 Z" stroke="none" fill="#002c5c"/>
      </g>
      <rect id="Rectangle_92" data-name="Rectangle 92" width="95.952" height="11.544" rx="5" transform="translate(109.659 41.122)" fill="#002c5c"/>
      <rect id="Rectangle_93" data-name="Rectangle 93" width="54.83" height="11.544" rx="5" transform="translate(130.22 68.537)" fill="#002c5c"/>
      <rect id="Rectangle_94" data-name="Rectangle 94" width="226.172" height="11" rx="5" transform="translate(41.122 102.806)" fill="#002c5c"/>
      <rect id="Rectangle_95" data-name="Rectangle 95" width="226.172" height="11" rx="5" transform="translate(41.122 130.22)" fill="#002c5c"/>
      <rect id="Rectangle_96" data-name="Rectangle 96" width="226.172" height="11" rx="5" transform="translate(41.122 157.635)" fill="#002c5c"/>
      <rect id="Rectangle_97" data-name="Rectangle 97" width="226.172" height="11" rx="5" transform="translate(41.122 185.05)" fill="#002c5c"/>
      <rect id="Rectangle_98" data-name="Rectangle 98" width="116.513" height="11" rx="5" transform="translate(41.122 212.465)" fill="#002c5c"/>
      <rect id="Rectangle_99" data-name="Rectangle 99" width="41.122" height="5.334" rx="2.667" transform="translate(47.976 297.028)" fill="#002c5c"/>
      <rect id="Rectangle_100" data-name="Rectangle 100" width="41.122" height="5.334" rx="2.667" transform="translate(47.976 315.581)" fill="#002c5c"/>
      <rect id="Rectangle_101" data-name="Rectangle 101" width="41.122" height="5.334" rx="2.667" transform="translate(47.976 334.133)" fill="#002c5c"/>
    </g>
  </g>
  <g id="noun_guarantee_1930945" transform="translate(188.833 236.917)">
    <g id="Group_37" data-name="Group 37" transform="translate(0 0)">
      <g id="Guarante">
        <path id="Path_81" data-name="Path 81" d="M50.744,82.5a1.893,1.893,0,0,1-1.344-.549L38.875,71.423h-14.9a1.893,1.893,0,0,1-1.893-1.893V54.613L11.56,44.088a1.893,1.893,0,0,1,0-2.669L22.085,30.894V15.978a1.893,1.893,0,0,1,1.893-1.893h14.9L49.4,3.56a1.893,1.893,0,0,1,2.669,0L62.594,14.085h14.9a1.893,1.893,0,0,1,1.893,1.893V30.894L89.91,41.419a1.893,1.893,0,0,1,0,2.669L79.385,54.613V69.53a1.893,1.893,0,0,1-1.893,1.893H62.613L52.088,81.948A1.893,1.893,0,0,1,50.744,82.5ZM25.871,67.618h13.8a1.893,1.893,0,0,1,1.344.549l9.73,9.768,9.749-9.749a1.893,1.893,0,0,1,1.344-.549h13.8v-13.8a1.893,1.893,0,0,1,.549-1.344l9.749-9.749L76.186,33a1.893,1.893,0,0,1-.549-1.344V17.871h-13.8a1.893,1.893,0,0,1-1.344-.549L50.744,7.554,41,17.3a1.893,1.893,0,0,1-1.344.549H25.871v13.8A1.893,1.893,0,0,1,25.322,33l-9.768,9.749L25.3,52.493a1.893,1.893,0,0,1,.549,1.344Z" transform="translate(-11.009 -3.009)" fill="#002c5c"/>
        <path id="Path_82" data-name="Path 82" d="M62.728,43.177l-1.685-1.685-2.688,2.669.36.36L31.1,72.083V63.262A1.893,1.893,0,0,0,29.2,61.369H20.439l17.34-17.34L35.11,41.36,14.533,61.918A1.863,1.863,0,0,0,15.8,65.155H27.311v11.49a1.893,1.893,0,0,0,1.174,1.742,1.59,1.59,0,0,0,.719.151,1.893,1.893,0,0,0,1.344-.549L62.728,45.808a1.893,1.893,0,0,0,0-2.688Z" transform="translate(-8.398 31.237)" fill="#002c5c"/>
        <path id="Path_83" data-name="Path 83" d="M64.283,59.364,49.14,44.22a5.394,5.394,0,0,1-1.174,1.7l-1.23,1.249L58.321,58.758H49.556a1.893,1.893,0,0,0-1.893,1.893v8.821L36.078,57.887,33.39,60.557,48.212,75.379a1.893,1.893,0,0,0,1.344.549,1.591,1.591,0,0,0,.719-.151,1.893,1.893,0,0,0,1.174-1.742V62.6h11.49a1.9,1.9,0,0,0,1.344-3.237Z" transform="translate(8.976 33.791)" fill="#002c5c"/>
        <path id="Path_84" data-name="Path 84" d="M37.359,42.6a1.893,1.893,0,0,1-1.458-.681L26.437,30.565a1.9,1.9,0,0,1,2.915-2.423l7.8,9.37L49,18.885a1.893,1.893,0,1,1,3.2,2.025L38.949,41.734a1.893,1.893,0,0,1-1.477.871Z" transform="translate(2.376 10.381)" fill="#002c5c"/>
      </g>
    </g>
  </g>
</svg>
