<svg xmlns="http://www.w3.org/2000/svg" width="29.006" height="29" viewBox="0 0 29.006 29">
  <g id="letters-of-credit" transform="translate(-9.995 -10)">
    <g id="Group_21" data-name="Group 21" transform="translate(9.995 10)">
      <g id="Group_4" data-name="Group 4" transform="translate(0 14.546)">
        <g id="Group_3" data-name="Group 3">
          <g id="Group_2" data-name="Group 2">
            <g id="Group_1" data-name="Group 1">
              <rect id="Rectangle_5" data-name="Rectangle 5" width="29.006" height="2.175" fill="#002c5c"/>
            </g>
          </g>
        </g>
      </g>
      <g id="Group_8" data-name="Group 8" transform="translate(0.006 17.881)">
        <g id="Group_7" data-name="Group 7">
          <g id="Group_6" data-name="Group 6">
            <g id="Group_5" data-name="Group 5">
              <path id="Path_6" data-name="Path 6" d="M10.005,40.83v9.361a1.76,1.76,0,0,0,1.757,1.757H37.253A1.759,1.759,0,0,0,39,50.191V40.83Zm4.275,2.894h4.889a.58.58,0,1,1,0,1.16H14.28a.58.58,0,1,1,0-1.16Zm9.785,4.228H14.28a.58.58,0,1,1,0-1.16h9.785a.58.58,0,1,1,0,1.16Zm8.967.168A2.306,2.306,0,0,1,32,47.877a2.349,2.349,0,0,1-1.032.244,2.285,2.285,0,0,1,0-4.57A2.349,2.349,0,0,1,32,43.794a2.285,2.285,0,1,1,1.027,4.327Z" transform="translate(-10.005 -40.83)" fill="#002c5c"/>
            </g>
          </g>
        </g>
      </g>
      <g id="Group_12" data-name="Group 12" transform="translate(0.006 8.944)">
        <g id="Group_11" data-name="Group 11">
          <g id="Group_10" data-name="Group 10">
            <g id="Group_9" data-name="Group 9">
              <path id="Path_7" data-name="Path 7" d="M27.312,29.772a1.748,1.748,0,0,1-.861-1.729l.265-2.112a6.949,6.949,0,0,1-.6-.512H11.762a1.755,1.755,0,0,0-1.757,1.752v2.691H27.534A1.793,1.793,0,0,1,27.312,29.772Z" transform="translate(-10.005 -25.42)" fill="#002c5c"/>
            </g>
          </g>
        </g>
      </g>
      <g id="Group_16" data-name="Group 16" transform="translate(18.852 9.153)">
        <g id="Group_15" data-name="Group 15">
          <g id="Group_14" data-name="Group 14">
            <g id="Group_13" data-name="Group 13">
              <path id="Path_8" data-name="Path 8" d="M51.713,25.781a9.085,9.085,0,0,1-5.841,2l-.192,0-2.842,2.045a1.541,1.541,0,0,1-.339.189H52.652V27.324A1.746,1.746,0,0,0,51.713,25.781Z" transform="translate(-42.498 -25.781)" fill="#002c5c"/>
            </g>
          </g>
        </g>
      </g>
      <g id="Group_20" data-name="Group 20" transform="translate(15.445)">
        <g id="Group_19" data-name="Group 19">
          <g id="Group_18" data-name="Group 18">
            <g id="Group_17" data-name="Group 17">
              <path id="Path_9" data-name="Path 9" d="M39.136,18.891l-.354,2.819a.582.582,0,0,0,.278.574.6.6,0,0,0,.3.081.544.544,0,0,0,.336-.11l3.144-2.262.023-.017c.18.012.36.017.545.017,3.741,0,6.78-2.239,6.78-4.994s-3.039-5-6.78-5-6.78,2.245-6.78,5A4.657,4.657,0,0,0,39.136,18.891Z" transform="translate(-36.625 -10)" fill="#002c5c"/>
            </g>
          </g>
        </g>
      </g>
    </g>
  </g>
</svg>
